<svg viewBox="0 0 64 64" fill="none" xmlns="http://www.w3.org/2000/svg" role="img" aria-label="Yaiya">
  <circle cx="32" cy="32" r="30" stroke="currentColor" stroke-width="1.4" opacity="0.5"/>
  <circle cx="32" cy="32" r="24.5" stroke="currentColor" stroke-width="0.8" opacity="0.35"/>
  <!-- betel leaf -->
  <path d="M32 13c10 7 16 14 16 23 0 8.5-7.2 15-16 15s-16-6.5-16-15c0-9 6-16 16-23z" fill="currentColor" opacity="0.16"/>
  <path d="M32 13c10 7 16 14 16 23 0 8.5-7.2 15-16 15s-16-6.5-16-15c0-9 6-16 16-23z" stroke="currentColor" stroke-width="1.3"/>
  <path d="M32 17v32" stroke="currentColor" stroke-width="1.1"/>
  <path d="M32 27c-3 1.5-6 3.4-8.4 6.2M32 27c3 1.5 6 3.4 8.4 6.2M32 36c-3.4 1.8-6.6 4-9.2 7M32 36c3.4 1.8 6.6 4 9.2 7" stroke="currentColor" stroke-width="0.9" opacity="0.8"/>
  <!-- kanok flourish at top -->
  <path d="M32 13c0-3 1.6-5.4 4.4-6.6-1 2 .2 3.6 1.8 4.4-3 .2-4.8 1-6.2 2.2z" fill="currentColor"/>
</svg>
